<?xml version="1.0" standalone="no"?>
<!DOCTYPE svg PUBLIC "-//W3C//DTD SVG 20010904//EN"
 "http://www.w3.org/TR/2001/REC-SVG-20010904/DTD/svg10.dtd">
<svg version="1.0" xmlns="http://www.w3.org/2000/svg"
 width="80.000000pt" height="51.000000pt" viewBox="0 0 80.000000 51.000000"
 preserveAspectRatio="xMidYMid meet">

<g transform="translate(0.000000,51.000000) scale(0.100000,-0.100000)"
fill="#000000" stroke="none">
<path d="M0 255 l0 -255 400 0 400 0 0 255 0 255 -400 0 -400 0 0 -255z m358
174 c60 -30 63 -46 17 -85 l-39 -32 -24 19 c-55 43 -132 8 -132 -58 0 -46 14
-69 49 -81 52 -18 71 -6 71 45 l0 44 53 -3 52 -3 0 -75 0 -75 -40 -20 c-28
-14 -60 -19 -110 -19 -76 0 -103 10 -152 57 -61 57 -66 172 -11 242 50 64 180
85 266 44z m222 -109 l0 -130 80 0 80 0 0 -50 0 -50 -140 0 -140 0 0 180 0
180 60 0 60 0 0 -130z"/>
</g>
</svg>
